<svg width="24" height="21" viewBox="0 0 24 21" fill="none" xmlns="http://www.w3.org/2000/svg">
<path d="M18 0.5C21.0483 0.5 23.4999 2.91799 23.5 5.87988C23.5 8.72793 21.7507 10.4077 18.6104 13.3564C16.9317 14.9324 14.9 16.84 12.6572 19.4404L12.2061 19.9697C12.1808 19.9997 12.1488 20.0235 12.1133 20.04C12.0778 20.0565 12.0391 20.0654 12 20.0654C11.9609 20.0654 11.9222 20.0565 11.8867 20.04C11.8512 20.0235 11.8192 19.9997 11.7939 19.9697H11.7949C9.37294 17.0924 7.17938 15.0351 5.38867 13.3555C2.24884 10.4072 0.5 8.72767 0.5 5.87988C0.500065 2.91799 2.95168 0.5 6 0.5C8.1596 0.5 9.70757 1.9159 10.6992 3.30273V3.30176C11.0715 3.82434 11.355 4.32818 11.5527 4.72363L11.999 5.61719L12.4473 4.72461C12.6956 4.22935 12.9801 3.7526 13.3008 3.30078C14.2922 1.91318 15.8408 0.5 18 0.5ZM18 1C16.7541 1 15.7285 1.52254 14.8906 2.26367L14.7256 2.41504C13.8499 3.24262 13.2406 4.25375 12.8936 4.94629V4.94727L12 6.73535L11.1064 4.94727V4.94629L10.9639 4.67285C10.6545 4.09949 10.1977 3.38178 9.59082 2.73242L9.27441 2.41504C8.40717 1.59471 7.32743 1 6 1C3.21852 1 1.00007 3.20425 1 5.87988C1 7.78002 1.84251 9.13525 3.58887 10.9258L3.9502 11.29C4.46129 11.7966 5.04221 12.3424 5.67871 12.9385V12.9395C7.34 14.4988 9.3905 16.4243 11.6221 18.998L12 19.4336L12.3779 18.998C14.6095 16.4243 16.659 14.4978 18.3203 12.9385C18.6386 12.6404 18.9445 12.3556 19.2334 12.0811L20.0498 11.29C22.0413 9.31372 23 7.90661 23 5.87988C22.9999 3.20425 20.7815 1 18 1Z" fill="#101828" stroke="black"/>
</svg>
